<svg width="23428" height="23860" viewBox="0 0 23428 23860" fill="none" xmlns="http://www.w3.org/2000/svg">
<path d="M5686.5 22027.5L7920.5 14387H18733.5M18733.5 14387L20342 22027.5M18733.5 14387L19122.2 13091.5M21548.5 5004L21173 6255.5M21548.5 5004L18487.8 5043.22M21548.5 5004L23156.5 89M19122.2 13091.5L19571.2 11594.8M19122.2 13091.5H17274.6M21173 6255.5H1218.5M21173 6255.5L20744.2 7685M20744.2 7685L2333.09 7417M20744.2 7685L20395.6 8847M2333.09 7417L593 5272.5L2737.5 5245.02M2333.09 7417L3239.45 8534M3239.45 8534L20395.6 8847M3239.45 8534L4327.16 9874.5M20395.6 8847L20020.2 10098M20020.2 10098L4327.16 9874.5M20020.2 10098L19571.2 11594.8M4327.16 9874.5L5374 11215M5374 11215L6937.5 13091.5H8412M5374 11215L19571.2 11594.8M2737.5 5245.02L8412 13091.5M2737.5 5245.02L6401.5 5198.08M8412 13091.5H10110M10110 13091.5L6401.5 5198.08M10110 13091.5H11718.5M6401.5 5198.08L10110 5150.56M10110 5150.56L11718.5 13091.5M10110 5150.56L13059 5112.77M11718.5 13091.5H13461M13461 13091.5L13059 5112.77M13461 13091.5H15427M13059 5112.77L15427 5082.43M15427 5082.43V13091.5M15427 5082.43L18487.8 5043.22M15427 13091.5H17274.6M17274.6 13091.5L18487.8 5043.22" stroke="#6800CA" stroke-width="570"/>
<path d="M6296 22809.5C6296 23216 5940.23 23575 5464 23575C4987.77 23575 4632 23216 4632 22809.5C4632 22403 4987.77 22044 5464 22044C5940.23 22044 6296 22403 6296 22809.5Z" stroke="#6800CA" stroke-width="570"/>
<path d="M21264 22809.5C21264 23216 20908.2 23575 20432 23575C19955.8 23575 19600 23216 19600 22809.5C19600 22403 19955.8 22044 20432 22044C20908.2 22044 21264 22403 21264 22809.5Z" stroke="#6800CA" stroke-width="570"/>
</svg>
