<svg width="32768" height="32421" viewBox="0 0 32768 32421" fill="none" xmlns="http://www.w3.org/2000/svg">
<path d="M32642.7 16210.3C32642.7 25092.6 25364.7 32295.3 16384 32295.3C7403.3 32295.3 125.286 25092.6 125.286 16210.3C125.286 7328.06 7403.3 125.286 16384 125.286C25364.7 125.286 32642.7 7328.06 32642.7 16210.3Z" stroke="#ffffff" stroke-width="277"/>
<path d="M8393.73 21594.5C7984.57 18132.5 9243.88 13859.3 15256.6 13616.1C12131.1 13470.3 8928.42 9844.61 10709.5 6078.94C12735.8 1794.79 20262 2663.21 21477.8 6078.94C22342.5 8508.5 22367 13021.9 16913.8 13553.6C20463.9 13528.4 26225.1 14782 26225.1 21594.5C26225.1 28684.5 9146.35 27962.8 8393.73 21594.5Z" fill="#ffffff"/>
<path d="M15804.2 13605.2C9320.04 13605.2 7972.44 18029.8 8393.73 21594.5C9146.35 27962.8 26225.1 28684.5 26225.1 21594.5C26225.1 14010.3 19084.8 13315.7 15804.2 13605.2ZM15804.2 13605.2C22366.7 13605.2 22397.6 8663.22 21477.8 6078.94C20262 2663.21 12735.8 1794.79 10709.5 6078.94C8824.07 10065.2 12523.5 13894.6 15804.2 13605.2Z" stroke="#ffffff" stroke-width="41"/>
</svg>
